<?xml version="1.0" standalone="no"?>
<!DOCTYPE svg PUBLIC "-//W3C//DTD SVG 20010904//EN"
 "http://www.w3.org/TR/2001/REC-SVG-20010904/DTD/svg10.dtd">
<svg version="1.0" xmlns="http://www.w3.org/2000/svg"
 width="248.000000pt" height="254.000000pt" viewBox="0 0 248.000000 254.000000"
 preserveAspectRatio="xMidYMid meet">

<g transform="translate(0.000000,254.000000) scale(0.100000,-0.100000)"
fill="#000000" stroke="none">
<path d="M1145 2454 c-196 -27 -288 -52 -413 -111 -172 -81 -366 -246 -471
-402 -312 -460 -262 -1084 119 -1485 358 -378 922 -479 1385 -249 190 95 346
231 460 403 92 138 146 265 181 432 24 110 24 351 0 459 -105 483 -457 835
-934 934 -74 15 -272 27 -327 19z m349 -906 c141 -147 256 -271 256 -275 0
-15 -611 -648 -625 -648 -7 0 -50 35 -94 79 l-81 78 237 245 236 244 -89 92
c-50 51 -157 161 -238 245 l-148 154 89 83 88 83 56 -56 c31 -31 172 -177 313
-324z"/>
</g>
</svg>
