<?xml version="1.0" standalone="no"?>
<!DOCTYPE svg PUBLIC "-//W3C//DTD SVG 20010904//EN"
 "http://www.w3.org/TR/2001/REC-SVG-20010904/DTD/svg10.dtd">
<svg version="1.0" xmlns="http://www.w3.org/2000/svg"
 width="248.000000pt" height="254.000000pt" viewBox="0 0 248.000000 254.000000"
 preserveAspectRatio="xMidYMid meet">

<g transform="translate(0.000000,254.000000) scale(0.100000,-0.100000)"
fill="#000000" stroke="none">
<path d="M1160 2453 c-489 -40 -888 -347 -1045 -805 -45 -129 -59 -223 -58
-383 0 -207 30 -338 118 -521 157 -326 464 -561 837 -640 102 -21 320 -24 428
-5 248 44 471 162 646 343 108 111 160 186 225 322 89 186 127 398 108 609
-40 458 -337 848 -773 1012 -125 47 -354 79 -486 68z m289 -617 l81 -78 -237
-245 -236 -244 89 -92 c50 -51 157 -161 238 -245 l148 -154 -89 -83 -88 -83
-56 56 c-206 209 -570 595 -567 603 7 21 614 649 625 647 6 -2 48 -38 92 -82z"/>
</g>
</svg>
