<?xml version="1.0" standalone="no"?>
<!DOCTYPE svg PUBLIC "-//W3C//DTD SVG 20010904//EN"
 "http://www.w3.org/TR/2001/REC-SVG-20010904/DTD/svg10.dtd">
<svg version="1.0" xmlns="http://www.w3.org/2000/svg"
 width="248.000000pt" height="254.000000pt" viewBox="0 0 248.000000 254.000000"
 preserveAspectRatio="xMidYMid meet">

<g transform="translate(0.000000,254.000000) scale(0.100000,-0.100000)"
fill="#000000" stroke="none">
<path d="M1145 2454 c-196 -27 -288 -52 -413 -111 -172 -81 -366 -246 -471
-402 -312 -460 -262 -1084 119 -1485 358 -378 922 -479 1385 -249 190 95 346
231 460 403 92 138 146 265 181 432 24 110 24 351 0 459 -105 483 -457 835
-934 934 -74 15 -272 27 -327 19z m360 -154 c320 -88 592 -321 713 -612 64
-153 77 -225 77 -418 0 -150 -3 -187 -22 -256 -132 -483 -545 -804 -1033 -804
-655 0 -1158 597 -1045 1241 72 412 382 747 783 848 117 30 116 30 287 26 127
-2 176 -7 240 -25z"/>
<path d="M1040 1841 l-85 -79 115 -119 c63 -65 170 -175 238 -244 l123 -125
-233 -243 c-128 -134 -234 -246 -236 -250 -1 -4 36 -41 82 -83 l84 -77 311
325 311 326 -202 211 c-112 116 -252 262 -313 324 l-110 114 -85 -80z"/>
</g>
</svg>
