<?xml version="1.0" standalone="no"?>
<!DOCTYPE svg PUBLIC "-//W3C//DTD SVG 20010904//EN"
 "http://www.w3.org/TR/2001/REC-SVG-20010904/DTD/svg10.dtd">
<svg version="1.0" xmlns="http://www.w3.org/2000/svg"
 width="248.000000pt" height="254.000000pt" viewBox="0 0 248.000000 254.000000"
 preserveAspectRatio="xMidYMid meet">

<g transform="translate(0.000000,254.000000) scale(0.100000,-0.100000)"
fill="#000000" stroke="none">
<path d="M1160 2453 c-489 -40 -888 -347 -1045 -805 -45 -129 -59 -223 -58
-383 0 -207 30 -338 118 -521 157 -326 464 -561 837 -640 102 -21 320 -24 428
-5 248 44 471 162 646 343 108 111 160 186 225 322 89 186 127 398 108 609
-40 458 -337 848 -773 1012 -125 47 -354 79 -486 68z m267 -138 c507 -96 873
-534 873 -1045 0 -488 -321 -901 -803 -1032 -70 -19 -107 -23 -257 -23 -193 0
-265 13 -418 77 -234 97 -463 326 -560 560 -64 153 -77 225 -77 418 0 150 3
187 22 256 99 362 360 641 704 753 157 51 361 65 516 36z"/>
<path d="M1041 1594 l-311 -326 202 -211 c112 -116 253 -262 313 -324 l110
-114 85 80 85 79 -115 119 c-63 65 -170 175 -238 244 l-123 125 233 243 c128
134 234 246 236 250 1 4 -36 41 -82 83 l-84 77 -311 -325z"/>
</g>
</svg>
